<svg width="140" height="20" viewBox="0 0 140 20" fill="none" xmlns="http://www.w3.org/2000/svg">
<g clip-path="url(#clip0_3_52)">
<path d="M10.0018 5.8987C7.73162 5.8987 5.9005 7.72982 5.9005 9.99999C5.9005 12.2701 7.73162 14.1013 10.0018 14.1013C12.2719 14.1013 14.1031 12.2701 14.1031 9.99999C14.1031 7.72982 12.2719 5.8987 10.0018 5.8987ZM10.0018 12.6664C8.53475 12.6664 7.33542 11.4706 7.33542 9.99999C7.33542 8.52938 8.53118 7.33362 10.0018 7.33362C11.4724 7.33362 12.6682 8.52938 12.6682 9.99999C12.6682 11.4706 11.4688 12.6664 10.0018 12.6664ZM15.2274 5.73094C15.2274 6.26278 14.7991 6.68755 14.2708 6.68755C13.739 6.68755 13.3142 6.25922 13.3142 5.73094C13.3142 5.20266 13.7426 4.77433 14.2708 4.77433C14.7991 4.77433 15.2274 5.20266 15.2274 5.73094ZM17.9438 6.70183C17.8831 5.4204 17.5904 4.28532 16.6516 3.35012C15.7165 2.41493 14.5814 2.12224 13.2999 2.05799C11.9793 1.98303 8.02075 1.98303 6.70006 2.05799C5.4222 2.11867 4.28712 2.41136 3.34835 3.34656C2.40959 4.28175 2.12047 5.41683 2.05622 6.69826C1.98126 8.01895 1.98126 11.9775 2.05622 13.2981C2.1169 14.5796 2.40959 15.7147 3.34835 16.6498C4.28712 17.585 5.41863 17.8777 6.70006 17.942C8.02075 18.0169 11.9793 18.0169 13.2999 17.942C14.5814 17.8813 15.7165 17.5886 16.6516 16.6498C17.5868 15.7147 17.8795 14.5796 17.9438 13.2981C18.0187 11.9775 18.0187 8.02252 17.9438 6.70183ZM16.2376 14.7152C15.9592 15.4148 15.4202 15.9538 14.717 16.2358C13.664 16.6534 11.1654 16.557 10.0018 16.557C8.83815 16.557 6.33597 16.6498 5.28656 16.2358C4.58695 15.9574 4.04796 15.4184 3.76598 14.7152C3.34835 13.6622 3.44473 11.1636 3.44473 9.99999C3.44473 8.83635 3.35192 6.33417 3.76598 5.28476C4.04439 4.58515 4.58338 4.04616 5.28656 3.76418C6.33954 3.34656 8.83815 3.44293 10.0018 3.44293C11.1654 3.44293 13.6676 3.35012 14.717 3.76418C15.4166 4.0426 15.9556 4.58158 16.2376 5.28476C16.6552 6.33774 16.5588 8.83635 16.5588 9.99999C16.5588 11.1636 16.6552 13.6658 16.2376 14.7152Z" fill="#EDEDF5"/>
<path d="M43.8954 6.24232C43.9152 6.04716 43.8392 5.85199 43.6936 5.71968L42.2018 3.92022V3.65228H46.8394L50.4251 11.515L53.5774 3.65228H58V3.92022L56.7232 5.14412C56.614 5.22681 56.5578 5.36574 56.5809 5.50136V14.4987C56.5578 14.6343 56.614 14.7732 56.7232 14.8559L57.9702 16.0798V16.3478H51.6953V16.0798L52.9886 14.8262C53.1143 14.7005 53.1143 14.6608 53.1143 14.4689V7.19828L49.5187 16.3246H49.0325L44.8514 7.19828V13.3145C44.815 13.5725 44.901 13.8305 45.0829 14.0157L46.7633 16.0534V16.3213H42V16.0567L43.6804 14.0157C43.859 13.8305 43.9417 13.5692 43.8954 13.3145V6.24232Z" fill="#EDEDF5"/>
<path d="M90 2C85.5888 2 82 5.58877 82 10C82 14.4112 85.5888 18 90 18C94.4112 18 98 14.4112 98 10C98 5.58877 94.4112 2 90 2ZM95.2894 5.68923C96.2411 6.852 96.8174 8.333 96.8324 9.94584C96.6071 9.89819 94.348 9.43997 92.0743 9.7259C91.8887 9.27297 91.7136 8.87452 91.4737 8.38352C94.0002 7.352 95.1453 5.8841 95.2894 5.68923ZM94.5297 4.89903C94.4068 5.0741 93.3782 6.45665 90.9484 7.36739C89.8286 5.3101 88.5876 3.62003 88.3987 3.36713C90.5657 2.84477 92.8492 3.4081 94.5297 4.89903ZM87.0949 3.82645C87.275 4.07352 88.4961 5.76568 89.6283 7.77835C86.432 8.62716 83.6167 8.61494 83.3111 8.6109C83.7542 6.49048 85.1832 4.72816 87.0949 3.82645ZM83.1668 10.0104C83.1668 9.94055 83.1682 9.871 83.1703 9.80161C83.4692 9.80774 86.7806 9.85042 90.193 8.82916C90.3886 9.212 90.5755 9.60061 90.747 9.98881C88.2761 10.6848 86.0311 12.6832 84.9235 14.5793C83.8321 13.3679 83.1668 11.7655 83.1668 10.0104ZM85.8057 15.4012C86.5195 13.942 88.4566 12.0585 91.2115 11.1187C92.1708 13.6117 92.5676 15.7011 92.6692 16.3006C90.472 17.2365 87.83 16.9797 85.8057 15.4012ZM93.818 15.675C93.7479 15.2593 93.3842 13.259 92.4905 10.803C94.6318 10.4602 96.5131 11.0213 96.7468 11.0951C96.4423 12.9964 95.3509 14.6384 93.818 15.675Z" fill="#EDEDF5"/>
<path d="M128.444 9.47919C129.328 9.05696 129.789 8.41807 129.789 7.42363C129.789 5.46252 128.328 4.98474 126.642 4.98474H122V14.8292H126.772C128.561 14.8292 130.242 13.9709 130.242 11.9709C130.242 10.7347 129.656 9.82085 128.444 9.47919ZM124.164 6.6653H126.194C126.975 6.6653 127.678 6.88474 127.678 7.7903C127.678 8.62641 127.131 8.96252 126.358 8.96252H124.164V6.6653ZM126.478 13.157H124.164V10.4459H126.522C127.475 10.4459 128.078 10.8431 128.078 11.8514C128.078 12.8459 127.358 13.157 126.478 13.157ZM136.436 6.47085H132.444V5.50141H136.436V6.47085ZM138 11.3681C138 9.25974 136.767 7.50141 134.531 7.50141C132.358 7.50141 130.883 9.13474 130.883 11.2736C130.883 13.4931 132.281 15.0153 134.531 15.0153C136.233 15.0153 137.336 14.2486 137.867 12.6181H136.139C135.953 13.2264 135.186 13.5486 134.592 13.5486C133.444 13.5486 132.842 12.8764 132.842 11.7347H137.983C137.992 11.6181 138 11.4931 138 11.3681ZM132.844 10.5014C132.908 9.5653 133.531 8.97919 134.469 8.97919C135.453 8.97919 135.947 9.55696 136.031 10.5014H132.844Z" fill="#EDEDF5"/>
</g>
<defs>
<clipPath id="clip0_3_52">
<rect width="140" height="20" fill="white"/>
</clipPath>
</defs>
</svg>
